<svg xmlns="http://www.w3.org/2000/svg" viewBox="0 0 1280 720">
  <defs><linearGradient id="sky" x2="0" y2="1"><stop stop-color="#193a4a"/><stop offset="1" stop-color="#86a1a2"/></linearGradient><linearGradient id="hill" x2="0" y2="1"><stop stop-color="#78997d"/><stop offset="1" stop-color="#263f38"/></linearGradient></defs>
  <rect width="1280" height="720" fill="url(#sky)"/><circle cx="937" cy="160" r="90" fill="#e7d5a3" opacity=".88"/><path d="M0 455Q280 315 530 433T1280 405V720H0Z" fill="#476b66"/><path d="M0 580Q278 400 577 534T1280 488V720H0Z" fill="url(#hill)"/><path d="M0 640Q400 525 710 603T1280 547V720H0Z" fill="#1d3536"/><path d="M75 660q60-90 126-125m-105 78q-45-20-72-18m135-47q-5-40-33-66m955 153q40-85 126-138m-77 90q-41-20-63-19" fill="none" stroke="#a5b99a" stroke-width="9" stroke-linecap="round" opacity=".6"/>
  <text x="68" y="635" font-family="sans-serif" font-size="36" fill="#f7f5e9" letter-spacing="9">FIELD NOTES</text>
</svg>
